<?xml version="1.0" encoding="UTF-8"?>
<svg width="1200" height="800" xmlns="http://www.w3.org/2000/svg">
  <!-- Background -->
  <rect width="1200" height="800" fill="#ffffff"/>
  
  <!-- Header -->
  <rect width="1200" height="80" fill="#2563eb"/>
  <text x="40" y="50" font-family="Arial" font-size="24" font-weight="bold" fill="#ffffff">
    Content Editor
  </text>
  
  <!-- Toolbar -->
  <rect y="80" width="1200" height="60" fill="#f8fafc"/>
  <g transform="translate(40, 115)">
    <!-- Formatting Tools -->
    <rect width="30" height="30" fill="#e2e8f0" rx="4"/>
    <text x="10" y="20" font-family="Arial" font-size="16" fill="#1e293b">B</text>
    
    <rect x="40" width="30" height="30" fill="#e2e8f0" rx="4"/>
    <text x="50" y="20" font-family="Arial" font-size="16" fill="#1e293b">I</text>
    
    <rect x="80" width="30" height="30" fill="#e2e8f0" rx="4"/>
    <text x="90" y="20" font-family="Arial" font-size="16" fill="#1e293b">U</text>
    
    <!-- Insert Tools -->
    <rect x="140" width="30" height="30" fill="#e2e8f0" rx="4"/>
    <text x="150" y="20" font-family="Arial" font-size="16" fill="#1e293b">📷</text>
    
    <rect x="180" width="30" height="30" fill="#e2e8f0" rx="4"/>
    <text x="190" y="20" font-family="Arial" font-size="16" fill="#1e293b">🔗</text>
    
    <rect x="220" width="30" height="30" fill="#e2e8f0" rx="4"/>
    <text x="230" y="20" font-family="Arial" font-size="16" fill="#1e293b">📊</text>
  </g>
  
  <!-- Content Area -->
  <g transform="translate(40, 180)">
    <!-- Text Block -->
    <rect width="1120" height="100" fill="#f8fafc" rx="4"/>
    <text x="20" y="40" font-family="Arial" font-size="24" font-weight="bold" fill="#1e293b">
      Welcome to Our Newsletter
    </text>
    <text x="20" y="70" font-family="Arial" font-size="16" fill="#64748b">
      Stay updated with our latest news and offers
    </text>
    
    <!-- Image Block -->
    <rect y="120" width="1120" height="200" fill="#f8fafc" rx="4"/>
    <rect x="20" y="140" width="1080" height="160" fill="#e2e8f0" rx="4"/>
    <text x="540" y="220" font-family="Arial" font-size="16" fill="#64748b" text-anchor="middle">
      Featured Image
    </text>
    
    <!-- Button Block -->
    <rect y="340" width="1120" height="80" fill="#f8fafc" rx="4"/>
    <rect x="20" y="360" width="200" height="40" fill="#2563eb" rx="4"/>
    <text x="120" y="385" font-family="Arial" font-size="16" fill="#ffffff" text-anchor="middle">
      Learn More
    </text>
    
    <!-- Divider -->
    <line x1="0" y1="440" x2="1120" y2="440" stroke="#e2e8f0" stroke-width="2"/>
  </g>
</svg> 